<svg width="61" height="13" viewBox="0 0 61 13" fill="none" xmlns="http://www.w3.org/2000/svg">
<path d="M57.0107 3.64908V9.51367H51.1645V3.64908H57.0107Z" fill="#FF3159"/>
<path d="M60.9761 2.33514V5.40053H57.913V2.33514H60.9761Z" fill="#FF8E2F"/>
<path d="M56.5642 0.583801V2.77337H54.3149V0.583801H56.5642Z" fill="#01AAF3"/>
<path fill-rule="evenodd" clip-rule="evenodd" d="M43.6629 12.9312V10.3381L45.2557 8.6809L48.03 12.9312H50.4455L46.6822 7.24695L50.1829 3.65779H47.8375L43.6629 7.80508V1.29993H41.6237V12.9312H43.6629ZM3.96344 3.52028C5.14493 3.52028 6.40519 3.86374 7.24536 4.45621L6.50146 5.9331C5.67004 5.42649 4.62858 5.11738 3.79716 5.11738C3.00074 5.11738 2.41437 5.37497 2.41437 6.03614C2.41437 6.74319 3.27868 6.99728 4.28715 7.29376C5.70357 7.71017 7.40437 8.21019 7.39414 10.1663C7.39414 12.0553 5.67879 12.9054 3.7884 12.9054C2.40562 12.9054 0.944071 12.4589 0.00762939 11.6174L0.734028 10.192C1.54794 10.9047 2.85196 11.334 3.87592 11.334C4.74235 11.334 5.41624 11.0421 5.41624 10.3466C5.41624 9.53549 4.50467 9.26736 3.4657 8.96175C2.08486 8.55559 0.47899 8.08323 0.488978 6.18211C0.506482 4.31883 2.16932 3.52028 3.96344 3.52028ZM12.0851 3.52028C13.2666 3.52028 14.5269 3.86374 15.3758 4.45621L14.6319 5.9331C13.8005 5.42649 12.759 5.11738 11.9276 5.11738C11.1312 5.11738 10.5448 5.37497 10.5448 6.03614C10.5448 6.74319 11.4091 6.99728 12.4176 7.29376C13.834 7.71017 15.5348 8.21019 15.5246 10.1663C15.5246 12.0553 13.8092 12.9054 11.9188 12.9054C10.536 12.9054 9.07449 12.4589 8.13804 11.6174L8.86444 10.192C9.67836 10.9047 10.9824 11.334 12.0063 11.334C12.8728 11.334 13.5467 11.0421 13.5467 10.3466C13.5467 9.53549 12.6351 9.26736 11.5961 8.96175C10.2153 8.55559 8.6094 8.08323 8.61939 6.18211C8.62815 4.31883 10.2822 3.52028 12.0851 3.52028ZM22.2022 10.7244L22.7098 12.2528C21.9659 12.6907 21.187 12.9311 20.3993 12.9311C18.9903 12.9311 17.765 12.1326 17.765 10.2435V5.44367H16.4435V3.94961H17.765V1.41658H19.7779V3.94961L24.1013 3.94961L24.1801 3.94961L25.4228 3.94961V1.41658H27.4357V3.94961H30.21V5.44367H27.4357V9.87431C27.4357 10.8274 27.8033 11.1279 28.4422 11.1279C28.8622 11.1194 29.3086 10.982 29.8512 10.7158L30.3676 12.2442C29.6237 12.6821 28.8447 12.9225 28.0571 12.9225C26.648 12.9225 25.4228 12.124 25.4228 10.2349V5.44367L24.1801 5.44367L24.1013 5.44367L19.7779 5.44367V9.87431C19.7779 10.8274 20.1455 11.1279 20.7844 11.1279C21.2132 11.1194 21.6596 10.982 22.2022 10.7244ZM35.8199 3.53746C39.1193 3.53746 40.4671 5.65833 40.2133 8.9899H33.1156C33.4307 10.4153 34.5509 11.2997 36.03 11.2997C37.0539 11.2997 37.9904 10.9219 38.6818 10.2264L39.7582 11.3512C38.8393 12.3386 37.5003 12.9139 35.8724 12.9139C32.9756 12.9139 31.0677 11.0249 31.0677 8.24287C31.0677 5.44367 33.0281 3.55463 35.8199 3.53746ZM33.0806 7.53019H38.4542C38.3842 6.03613 37.3777 5.13455 35.8374 5.13455C34.3496 5.13455 33.3082 6.05331 33.0806 7.53019Z" fill="black"/>
</svg>
